#!OML:ASF E:\acrobat2\Project_11_07_03\Capture day 1\Session 1\Acrobat.ASF
:FULLY-SPECIFIED
:DEGREES
946
root 8.33777 11.4203 13.0337 6.38328 4.97573 0.0174188
lowerback 20.9553 -0.0541329 -2.64464
upperback 1.55745 -0.762625 -0.762998
thorax -10.0241 -0.258665 0.893278
lowerneck 2.16512 6.1905 -0.163489
upperneck -39.795 10.9021 3.0887
head -14.2729 4.54174 -0.0510914
rclavicle 2.40529e-014 1.27222e-014
rhumerus -20.1408 20.2804 -58.1884
rradius 138.055
rwrist -51.1071
rhand -3.67833 -37.2104
rfingers 7.12502
rthumb 22.0628 294.028
lclavicle 2.40529e-014 1.27222e-014
lhumerus -55.8789 -58.8849 106.965
lradius 134.471
lwrist 50.0722
lhand -10.4029 -34.2612
lfingers 7.12502
lthumb 15.5956 -4.86996
rfemur -52.112 -47.7854 -8.982
rtibia 78.4025
rfoot -213.744 0.211616
rtoes -29.8684
lfemur -69.342 45.5505 -3.784
ltibia 73.8243
lfoot -180.409 32.6107
ltoes 44.3079
947
root 8.34438 11.4193 13.0859 6.08319 4.87477 -0.0258811
lowerback 20.9241 -0.436244 -2.75567
upperback 1.57963 -1.24448 -0.351732
thorax -9.95298 -0.472044 1.54744
lowerneck 2.68148 5.37008 -0.729386
upperneck -39.4146 10.1754 4.97244
head -14.3644 4.04111 0.891256
rclavicle -1.54058e-014 -1.19271e-014
rhumerus -19.517 28.0003 -59.6367
rradius 140.27
rwrist -46.0668
rhand 2.1558 -34.8332
rfingers 7.12502
rthumb 27.6536 297.179
lclavicle -1.54058e-014 -1.19271e-014
lhumerus -57.0458 -58.7348 107.702
lradius 134.126
lwrist 49.6991
lhand -9.69125 -34.8166
lfingers 7.12502
lthumb 16.2809 -5.48008
rfemur -51.2678 -47.8556 -9.52064
rtibia 78.4149
rfoot -213.803 0.129979
rtoes -30.1626
lfemur -68.575 45.7533 -3.28096
ltibia 73.7877
lfoot -181.01 32.6128
ltoes 43.5678
948
root 8.34785 11.422 13.1373 5.81065 4.69481 0.0113603
lowerback 20.9017 -0.766867 -2.98103
upperback 1.57139 -1.68723 0.0556125
thorax -9.90971 -0.661989 2.25056
lowerneck 3.43377 4.4033 -1.38094
upperneck -39.1375 9.21719 6.87222
head -14.5201 3.44094 1.89735
rclavicle -2.98177e-016 -5.1684e-015
rhumerus -19.5875 36.5658 -61.2088
rradius 142.251
rwrist -40.3588
rhand 6.86785 -32.512
rfingers 7.12502
rthumb 32.1499 300.312
lclavicle -2.98177e-016 -5.1684e-015
lhumerus -56.0008 -57.5018 105.664
lradius 133.847
lwrist 49.0379
lhand -9.8907 -35.2225
lfingers 7.12502
lthumb 16.0889 -5.87043
rfemur -50.5574 -47.7777 -10.0184
rtibia 78.4662
rfoot -213.882 0.291169
rtoes -30.7158
lfemur -67.7364 45.9443 -2.81854
ltibia 73.8032
lfoot -181.504 32.5665
ltoes 43.0202
949
root 8.34792 11.4292 13.1885 5.58403 4.44016 0.12499
lowerback 20.864 -1.0166 -3.31726
upperback 1.52561 -2.0518 0.449112
thorax -9.8913 -0.809989 2.97918
lowerneck 4.40789 3.30842 -2.06104
upperneck -38.9819 8.0367 8.71815
head -14.7272 2.74697 2.94156
rclavicle 7.25564e-015 -3.97569e-016
rhumerus -20.5296 44.8397 -62.972
rradius 143.839
rwrist -36.0778
rhand 9.48076 -30.8354
rfingers 7.12502
rthumb 34.6337 302.524
lclavicle 7.25564e-015 -3.97569e-016
lhumerus -53.551 -55.562 101.819
lradius 133.567
lwrist 48.1875
lhand -10.8663 -35.5764
lfingers 7.12502
lthumb 15.1493 -6.1509
rfemur -49.9916 -47.551 -10.4574
rtibia 78.5569
rfoot -214.009 0.569747
rtoes -31.2242
lfemur -66.8423 46.1161 -2.39623
ltibia 73.8767
lfoot -181.741 32.4812
ltoes 42.8937
950
root 8.34502 11.4415 13.2401 5.42687 4.14306 0.308435
lowerback 20.7646 -1.18154 -3.76343
upperback 1.46559 -2.33009 0.831174
thorax -9.84844 -0.913501 3.7315
lowerneck 5.48707 2.08544 -2.70184
upperneck -38.9421 6.61025 10.434
head -14.9372 1.95338 3.99343
rclavicle -1.65488e-014 -4.07509e-015
rhumerus -22.3432 51.6424 -64.9767
rradius 144.98
rwrist -34.812
rhand 9.79741 -30.4358
rfingers 7.12502
rthumb 34.9342 302.993
lclavicle -1.65488e-014 -4.07509e-015
lhumerus -50.3423 -53.1885 97.0105
lradius 133.236
lwrist 47.3912
lhand -12.1216 -35.6107
lfingers 7.12502
lthumb 13.9398 -6.09794
rfemur -49.5626 -47.2194 -10.8303
rtibia 78.695
rfoot -214.182 0.939856
rtoes -31.7478
lfemur -65.9491 46.2411 -2.04187
ltibia 74.0063
lfoot -181.746 32.3703
ltoes 43.0859
951
root 8.34012 11.4594 13.292 5.34427 3.84647 0.545905
lowerback 20.6081 -1.29515 -4.2377
upperback 1.39875 -2.55165 1.15028
thorax -9.78109 -0.99158 4.41196
lowerneck 6.34422 0.757855 -3.2567
upperneck -38.7739 4.96971 12.0616
head -14.9453 1.07614 5.03604
rclavicle 3.85891e-014 -1.03368e-014
rhumerus -24.6348 55.7858 -66.9911
rradius 145.686
rwrist -37.4236
rhand 8.45971 -31.2209
rfingers 7.12502
rthumb 33.664 301.921
lclavicle 3.85891e-014 -1.03368e-014
lhumerus -46.795 -50.5605 91.7734
lradius 132.783
lwrist 47.0994
lhand -13.5922 -35.5606
lfingers 7.12502
lthumb 12.5223 -5.95583
rfemur -49.2187 -46.8347 -11.1593
rtibia 78.8769
rfoot -214.413 1.36002
rtoes -32.2763
lfemur -65.1017 46.2836 -1.77123
ltibia 74.1818
lfoot -181.694 32.2479
ltoes 43.2665
952
root 8.33462 11.4828 13.3442 5.33111 3.56351 0.819737
lowerback 20.3685 -1.36865 -4.69723
upperback 1.36214 -2.72022 1.38879
thorax -9.63879 -1.05122 4.97426
lowerneck 6.86879 -0.669096 -3.61457
upperneck -38.4946 3.1062 13.4524
head -14.7227 0.109835 5.95202
rclavicle -6.70898e-016 6.08778e-015
rhumerus -26.5701 56.6711 -68.2585
rradius 145.926
rwrist -42.923
rhand 6.47338 -32.4375
rfingers 7.12502
rthumb 31.7743 300.312
lclavicle -6.70898e-016 6.08778e-015
lhumerus -43.1742 -47.8527 86.4424
lradius 132.257
lwrist 47.4847
lhand -15.6705 -35.3324
lfingers 7.12502
lthumb 10.518 -5.61551
rfemur -48.9263 -46.4239 -11.4589
rtibia 79.0924
rfoot -214.699 1.74954
rtoes -32.6695
lfemur -64.3218 46.2297 -1.58372
ltibia 74.381
lfoot -181.71 32.1236
ltoes 43.2573
953
root 8.32967 11.5111 13.3967 5.3696 3.2961 1.09525
lowerback 20.0538 -1.41067 -5.0984
upperback 1.36393 -2.83588 1.54907
thorax -9.42193 -1.09518 5.39539
lowerneck 7.17184 -2.10293 -3.8742
upperneck -38.2668 1.17816 14.6169
head -14.4129 -0.8716 6.73572
rclavicle -3.20789e-014 4.62174e-015
rhumerus -27.8587 54.6661 -68.5302
rradius 145.566
rwrist -48.5797
rhand 4.96271 -33.3405
rfingers 7.12502
rthumb 30.3344 299.133
lclavicle -3.20789e-014 4.62174e-015
lhumerus -39.6674 -45.2318 81.2669
lradius 131.73
lwrist 48.5632
lhand -18.3733 -34.7721
lfingers 7.12502
lthumb 7.91001 -4.94006
rfemur -48.655 -45.9987 -11.7228
rtibia 79.3234
rfoot -215.03 2.09068
rtoes -32.9271
lfemur -63.6007 46.0964 -1.43814
ltibia 74.5935
lfoot -181.793 31.9948
ltoes 43.0746
954
root 8.32544 11.5433 13.4495 5.43661 3.07461 1.30643
lowerback 19.7348 -1.43409 -5.38007
upperback 1.36947 -2.90217 1.6673
thorax -9.21115 -1.12256 5.68676
lowerneck 7.18191 -3.50428 -3.99806
upperneck -38.0153 -0.793253 15.4127
head -13.9857 -1.84567 7.29027
rclavicle -4.5969e-015 -8.54774e-015
rhumerus -28.9869 50.8417 -68.2918
rradius 144.566
rwrist -51.7173
rhand 4.32142 -33.4018
rfingers 7.12502
rthumb 29.7225 298.961
lclavicle -4.5969e-015 -8.54774e-015
lhumerus -36.4402 -42.9017 76.4897
lradius 131.305
lwrist 50.3344
lhand -21.1717 -33.9775
lfingers 7.12502
lthumb 5.20853 -4.06151
rfemur -48.3639 -45.5924 -11.9059
rtibia 79.5664
rfoot -215.384 2.39761
rtoes -33.1297
lfemur -62.9352 45.8938 -1.25513
ltibia 74.8114
lfoot -181.857 31.8581
ltoes 42.8869
955
root 8.32142 11.5784 13.5029 5.51066 2.92903 1.39549
lowerback 19.4163 -1.45268 -5.48401
upperback 1.3754 -2.9227 1.77632
thorax -9.01502 -1.13555 5.85338
lowerneck 7.11269 -4.75399 -4.10431
upperneck -37.9314 -2.63184 15.8273
head -13.6315 -2.71831 7.6478
rclavicle 1.39149e-015 2.5842e-015
rhumerus -30.2796 46.305 -67.9561
rradius 142.949
rwrist -50.7643
rhand 5.11453 -32.6264
rfingers 7.12502
rthumb 30.4792 299.874
lclavicle 1.39149e-015 2.5842e-015
lhumerus -33.4785 -41.0434 72.1846
lradius 131.078
lwrist 52.71
lhand -23.3481 -33.2423
lfingers 7.12502
lthumb 3.10694 -3.28519
rfemur -48.0089 -45.2254 -11.9742
rtibia 79.8155
rfoot -215.757 2.60435
rtoes -33.115
lfemur -62.3231 45.6363 -0.966292
ltibia 75.027
lfoot -181.832 31.7141
ltoes 42.8437
